<?xml version="1.0" standalone="no"?>
<!DOCTYPE svg PUBLIC "-//W3C//DTD SVG 20010904//EN"
 "http://www.w3.org/TR/2001/REC-SVG-20010904/DTD/svg10.dtd">
<svg version="1.0" xmlns="http://www.w3.org/2000/svg"
 width="260.000000pt" height="260.000000pt" viewBox="0 0 260.000000 260.000000"
 preserveAspectRatio="xMidYMid meet">
<metadata>
Created by potrace 1.14, written by Peter Selinger 2001-2017
</metadata>
<g transform="translate(0.000000,260.000000) scale(0.100000,-0.100000)"
fill="#000000" stroke="none">
<path d="M721 2012 c-70 -35 -76 -52 -79 -253 l-3 -179 -195 0 -195 0 3 -47 3
-48 193 -3 192 -2 0 -415 0 -415 -182 -2 -183 -3 -3 -47 -3 -48 430 0 431 0 0
50 0 50 -190 0 -190 0 0 415 0 415 215 0 215 0 0 50 0 50 -215 0 -215 0 0 175
0 175 215 0 215 0 0 50 0 50 -212 0 c-183 0 -218 -2 -247 -18z"/>
<path d="M1785 1599 c-124 -15 -232 -78 -286 -166 l-22 -36 34 -28 c35 -29 49
-35 49 -20 0 22 86 103 137 127 48 24 69 28 142 28 102 0 150 -14 202 -61 54
-49 74 -108 74 -223 l0 -95 -210 -6 c-231 -6 -280 -16 -353 -69 -88 -63 -124
-167 -102 -288 21 -107 110 -198 220 -221 176 -38 344 12 418 124 l30 46 7
-43 c15 -91 58 -118 185 -118 l80 0 0 50 0 50 -80 0 -80 0 0 336 c0 371 -4
406 -61 484 -71 98 -223 149 -384 129z m335 -661 c0 -136 -11 -172 -70 -229
-63 -62 -126 -83 -245 -83 -138 0 -210 43 -236 138 -14 52 -6 136 17 175 23
38 96 78 165 90 30 5 125 9 212 10 l157 1 0 -102z"/>
</g>
</svg>
